<svg width="25" height="30" viewBox="0 0 25 30" fill="none" xmlns="http://www.w3.org/2000/svg">
<g clip-path="url(#clip0_217_24)">
<path d="M20.4994 15.9076C20.5417 20.439 24.5014 21.947 24.5452 21.9662C24.5117 22.0725 23.9125 24.115 22.4592 26.2249C21.2027 28.049 19.8987 29.8663 17.8444 29.9039C15.8261 29.9409 15.177 28.715 12.8694 28.715C10.5624 28.715 9.84126 29.8663 7.93055 29.9409C5.94774 30.0154 4.43781 27.9685 3.17103 26.151C0.582256 22.4336 -1.39605 15.6463 1.26032 11.0648C2.57993 8.78952 4.93831 7.34886 7.49794 7.3119C9.44499 7.27505 11.2828 8.61305 12.4731 8.61305C13.6626 8.61305 15.8959 7.004 18.2438 7.24029C19.2265 7.28095 21.9856 7.63457 23.7572 10.2104C23.6143 10.2983 20.4651 12.1193 20.4994 15.9077M16.706 4.78086C17.7588 3.51514 18.4673 1.75324 18.274 0C16.7566 0.0605714 14.9218 1.00438 13.8333 2.26933C12.858 3.38962 12.0038 5.18257 12.2343 6.90105C13.9256 7.03105 15.6533 6.04733 16.706 4.78086Z" fill="white"/>
</g>
<defs>
<clipPath id="clip0_217_24">
<rect width="24.5455" height="30" fill="white"/>
</clipPath>
</defs>
</svg>
