<svg width="24" height="24" viewBox="0 0 24 24" fill="none" xmlns="http://www.w3.org/2000/svg">
<path d="M21 10.9749V7.99988C21 7.46945 20.7893 6.96074 20.4142 6.58567C20.0391 6.21059 19.5304 5.99988 19 5.99988H13V4.68788C13.305 4.41388 13.5 4.01988 13.5 3.57788C13.5 3.18006 13.342 2.79853 13.0607 2.51722C12.7794 2.23592 12.3978 2.07788 12 2.07788C11.6022 2.07788 11.2206 2.23592 10.9393 2.51722C10.658 2.79853 10.5 3.18006 10.5 3.57788C10.5 4.01988 10.695 4.41388 11 4.68788V5.99988H5C4.46957 5.99988 3.96086 6.21059 3.58579 6.58567C3.21071 6.96074 3 7.46945 3 7.99988V10.9979L2.928 11.0029C2.67589 11.0208 2.43996 11.1337 2.26775 11.3187C2.09554 11.5037 1.99987 11.7471 2 11.9999V13.9999C2 14.2651 2.10536 14.5195 2.29289 14.707C2.48043 14.8945 2.73478 14.9999 3 14.9999V19.9999C3 20.5303 3.21071 21.039 3.58579 21.4141C3.96086 21.7892 4.46957 21.9999 5 21.9999H19C19.5304 21.9999 20.0391 21.7892 20.4142 21.4141C20.7893 21.039 21 20.5303 21 19.9999V14.9999C21.2652 14.9999 21.5196 14.8945 21.7071 14.707C21.8946 14.5195 22 14.2651 22 13.9999V12.0619C22.0116 11.9067 21.9869 11.7509 21.928 11.6069C21.726 11.1189 21.293 11.0019 21 10.9749ZM7 11.9999C7 10.8959 7.672 9.99988 8.5 9.99988C9.328 9.99988 10 10.8959 10 11.9999C10 13.1039 9.328 13.9999 8.5 13.9999C7.672 13.9999 7 13.1039 7 11.9999ZM15.998 17.9999C14.997 17.9969 8 17.9999 8 17.9999V15.9999C8 15.9999 15.001 15.9979 16.002 15.9999L15.998 17.9999ZM15.5 13.9999C14.672 13.9999 14 13.1039 14 11.9999C14 10.8959 14.672 9.99988 15.5 9.99988C16.328 9.99988 17 10.8959 17 11.9999C17 13.1039 16.328 13.9999 15.5 13.9999Z" fill="url(#paint0_linear_197_1038)"/>
<defs>
<linearGradient id="paint0_linear_197_1038" x1="2" y1="2" x2="22" y2="22" gradientUnits="userSpaceOnUse">
<stop stop-color="#00E6FF"/>
<stop offset="1" stop-color="#1201FF"/>
</linearGradient>
</defs>
</svg>
