<svg width="28" height="28" viewBox="0 0 28 28" fill="none" xmlns="http://www.w3.org/2000/svg">
<path d="M26.25 12.25H25.0688L22.0303 5.41406C21.8928 5.10478 21.6686 4.84201 21.3847 4.65759C21.1009 4.47316 20.7697 4.375 20.4312 4.375H7.56875C7.23028 4.375 6.89907 4.47316 6.61525 4.65759C6.33144 4.84201 6.10719 5.10478 5.96969 5.41406L2.93125 12.25H1.75C1.51794 12.25 1.29538 12.3422 1.13128 12.5063C0.967187 12.6704 0.875 12.8929 0.875 13.125C0.875 13.3571 0.967187 13.5796 1.13128 13.7437C1.29538 13.9078 1.51794 14 1.75 14H2.625V22.75C2.625 23.2141 2.80937 23.6592 3.13756 23.9874C3.46575 24.3156 3.91087 24.5 4.375 24.5H7C7.46413 24.5 7.90925 24.3156 8.23744 23.9874C8.56563 23.6592 8.75 23.2141 8.75 22.75V21H19.25V22.75C19.25 23.2141 19.4344 23.6592 19.7626 23.9874C20.0908 24.3156 20.5359 24.5 21 24.5H23.625C24.0891 24.5 24.5342 24.3156 24.8624 23.9874C25.1906 23.6592 25.375 23.2141 25.375 22.75V14H26.25C26.4821 14 26.7046 13.9078 26.8687 13.7437C27.0328 13.5796 27.125 13.3571 27.125 13.125C27.125 12.8929 27.0328 12.6704 26.8687 12.5063C26.7046 12.3422 26.4821 12.25 26.25 12.25ZM8.75 17.5H7C6.76794 17.5 6.54538 17.4078 6.38128 17.2437C6.21719 17.0796 6.125 16.8571 6.125 16.625C6.125 16.3929 6.21719 16.1704 6.38128 16.0063C6.54538 15.8422 6.76794 15.75 7 15.75H8.75C8.98206 15.75 9.20462 15.8422 9.36872 16.0063C9.53281 16.1704 9.625 16.3929 9.625 16.625C9.625 16.8571 9.53281 17.0796 9.36872 17.2437C9.20462 17.4078 8.98206 17.5 8.75 17.5ZM19.25 17.5C19.0179 17.5 18.7954 17.4078 18.6313 17.2437C18.4672 17.0796 18.375 16.8571 18.375 16.625C18.375 16.3929 18.4672 16.1704 18.6313 16.0063C18.7954 15.8422 19.0179 15.75 19.25 15.75H21C21.2321 15.75 21.4546 15.8422 21.6187 16.0063C21.7828 16.1704 21.875 16.3929 21.875 16.625C21.875 16.8571 21.7828 17.0796 21.6187 17.2437C21.4546 17.4078 21.2321 17.5 21 17.5H19.25Z" fill="currentColor"/>
</svg>
