<svg width="38" height="38" viewBox="0 0 38 38" fill="none" xmlns="http://www.w3.org/2000/svg">
<path d="M14.25 16.6251C14.25 16.3101 14.3751 16.0081 14.5978 15.7854C14.8205 15.5627 15.1225 15.4376 15.4375 15.4376H22.5625C22.8774 15.4376 23.1795 15.5627 23.4022 15.7854C23.6249 16.0081 23.75 16.3101 23.75 16.6251C23.75 16.94 23.6249 17.242 23.4022 17.4647C23.1795 17.6874 22.8774 17.8126 22.5625 17.8126H15.4375C15.1225 17.8126 14.8205 17.6874 14.5978 17.4647C14.3751 17.242 14.25 16.94 14.25 16.6251ZM15.4375 20.1876C15.1225 20.1876 14.8205 20.3127 14.5978 20.5354C14.3751 20.7581 14.25 21.0601 14.25 21.3751C14.25 21.69 14.3751 21.9921 14.5978 22.2147C14.8205 22.4374 15.1225 22.5626 15.4375 22.5626H20.1875C20.5024 22.5626 20.8045 22.4374 21.0272 22.2147C21.2499 21.9921 21.375 21.69 21.375 21.3751C21.375 21.0601 21.2499 20.7581 21.0272 20.5354C20.8045 20.3127 20.5024 20.1876 20.1875 20.1876H15.4375ZM4.74997 19.0001C4.75057 15.8628 5.78648 12.8134 7.69698 10.325C9.60749 7.83651 12.2858 6.04809 15.3164 5.23713C18.3471 4.42616 21.5606 4.638 24.4586 5.83976C27.3566 7.04153 29.7769 9.16605 31.3443 11.8838C32.9116 14.6015 33.5382 17.7604 33.127 20.8706C32.7158 23.9808 31.2897 26.8684 29.0699 29.0854C26.8502 31.3024 23.9608 32.7249 20.8501 33.1322C17.7394 33.5395 14.5812 32.9089 11.8655 31.3382L6.31272 33.1907C6.10757 33.2592 5.88761 33.2703 5.67658 33.223C5.46555 33.1756 5.27147 33.0715 5.11527 32.9219C4.95907 32.7723 4.8467 32.5829 4.79027 32.3741C4.73385 32.1653 4.73551 31.9451 4.79509 31.7372L6.48609 25.8211C5.34375 23.7293 4.74668 21.3834 4.74997 19.0001ZM19 7.12506C16.9033 7.12493 14.8439 7.67993 13.0312 8.73366C11.2186 9.78739 9.71721 11.3023 8.67976 13.1243C7.64232 14.9464 7.10578 17.0106 7.1247 19.1072C7.14362 21.2038 7.71731 23.258 8.78747 25.0611C8.8698 25.2003 8.92281 25.355 8.94323 25.5155C8.96365 25.676 8.95105 25.839 8.90622 25.9944L7.69734 30.2219L11.6351 28.9109C11.8023 28.8551 11.9799 28.8373 12.1549 28.8586C12.3299 28.88 12.4979 28.94 12.6468 29.0344C14.2031 30.0193 15.9671 30.6287 17.7995 30.8145C19.6318 31.0003 21.4823 30.7573 23.2045 30.1047C24.9268 29.4522 26.4737 28.408 27.7229 27.0547C28.9721 25.7014 29.8894 24.0761 30.4024 22.3073C30.9153 20.5384 31.0098 18.6745 30.6783 16.8628C30.3468 15.0511 29.5985 13.3414 28.4925 11.8688C27.3864 10.3961 25.953 9.20089 24.3056 8.37759C22.6581 7.5543 20.8417 7.12549 19 7.12506Z" fill="white"/>
</svg>
