<svg width="20" height="20" viewBox="0 0 20 20" fill="none" xmlns="http://www.w3.org/2000/svg">
<path d="M8.21425 4.28585H11.7857C11.7857 3.81225 11.5975 3.35805 11.2627 3.02316C10.9278 2.68828 10.4736 2.50014 9.99996 2.50014C9.52636 2.50014 9.07216 2.68828 8.73727 3.02316C8.40239 3.35805 8.21425 3.81225 8.21425 4.28585ZM7.14282 4.28585C7.14282 3.52809 7.44384 2.80137 7.97966 2.26555C8.51548 1.72973 9.2422 1.42871 9.99996 1.42871C10.7577 1.42871 11.4845 1.72973 12.0203 2.26555C12.5561 2.80137 12.8571 3.52809 12.8571 4.28585H17.3214C17.4635 4.28585 17.5997 4.34229 17.7002 4.44276C17.8007 4.54323 17.8571 4.67949 17.8571 4.82157C17.8571 4.96365 17.8007 5.09991 17.7002 5.20038C17.5997 5.30084 17.4635 5.35728 17.3214 5.35728H16.3857L15.5164 15.788C15.4531 16.5468 15.1071 17.2541 14.5467 17.7697C13.9864 18.2853 13.2528 18.5715 12.4914 18.5716H7.50854C6.7471 18.5715 6.01349 18.2853 5.45318 17.7697C4.89287 17.2541 4.54678 16.5468 4.48354 15.788L3.61425 5.35728H2.67854C2.53646 5.35728 2.4002 5.30084 2.29973 5.20038C2.19926 5.09991 2.14282 4.96365 2.14282 4.82157C2.14282 4.67949 2.19926 4.54323 2.29973 4.44276C2.4002 4.34229 2.53646 4.28585 2.67854 4.28585H7.14282ZM8.92854 8.393C8.92854 8.25092 8.87209 8.11466 8.77163 8.01419C8.67116 7.91372 8.5349 7.85728 8.39282 7.85728C8.25074 7.85728 8.11448 7.91372 8.01402 8.01419C7.91355 8.11466 7.85711 8.25092 7.85711 8.393V14.4644C7.85711 14.6065 7.91355 14.7428 8.01402 14.8432C8.11448 14.9437 8.25074 15.0001 8.39282 15.0001C8.5349 15.0001 8.67116 14.9437 8.77163 14.8432C8.87209 14.7428 8.92854 14.6065 8.92854 14.4644V8.393ZM11.6071 7.85728C11.465 7.85728 11.3288 7.91372 11.2283 8.01419C11.1278 8.11466 11.0714 8.25092 11.0714 8.393V14.4644C11.0714 14.6065 11.1278 14.7428 11.2283 14.8432C11.3288 14.9437 11.465 15.0001 11.6071 15.0001C11.7492 15.0001 11.8854 14.9437 11.9859 14.8432C12.0864 14.7428 12.1428 14.6065 12.1428 14.4644V8.393C12.1428 8.25092 12.0864 8.11466 11.9859 8.01419C11.8854 7.91372 11.7492 7.85728 11.6071 7.85728Z" fill="#FF3D00"/>
</svg>
