<svg width="32" height="32" viewBox="0 0 32 32" fill="none" xmlns="http://www.w3.org/2000/svg">
<path d="M5.33338 28V22.6666C5.33338 22.2889 5.46138 21.972 5.71738 21.716C5.97338 21.46 6.28982 21.3324 6.66671 21.3333H8.00005C8.37782 21.3333 8.69471 21.4613 8.95071 21.7173C9.20671 21.9733 9.33427 22.2897 9.33338 22.6666V28C9.33338 28.3777 9.20538 28.6946 8.94938 28.9506C8.69338 29.2066 8.37693 29.3342 8.00005 29.3333H6.66671C6.28893 29.3333 5.97205 29.2053 5.71605 28.9493C5.46005 28.6933 5.33249 28.3769 5.33338 28ZM12 28V13.4666C11.0667 13.7777 10.4165 14.3222 10.0494 15.1C9.68227 15.8777 9.45471 16.7222 9.36671 17.6333C9.32227 17.9444 9.16671 18.1946 8.90005 18.384C8.63338 18.5733 8.33338 18.6675 8.00005 18.6666C7.64449 18.6666 7.33338 18.5555 7.06671 18.3333C6.80005 18.1111 6.68893 17.8333 6.73338 17.5C6.97782 14.9889 7.91116 13 9.53338 11.5333C11.1556 10.0666 13.3112 9.3333 16 9.3333C18 9.3333 19.5503 8.88352 20.6507 7.98396C21.7512 7.08441 22.4009 5.73419 22.6 3.9333C22.6445 3.55552 22.7947 3.24974 23.0507 3.01596C23.3067 2.78219 23.6232 2.66574 24 2.66663C24.3778 2.66663 24.6947 2.78885 24.9507 3.0333C25.2067 3.27774 25.312 3.57774 25.2667 3.9333C25.0889 5.59996 24.5836 7.08352 23.7507 8.38396C22.9178 9.68441 21.6676 10.6231 20 11.2V28C20 28.3777 19.872 28.6946 19.616 28.9506C19.36 29.2066 19.0436 29.3342 18.6667 29.3333C18.2889 29.3333 17.972 29.2053 17.716 28.9493C17.46 28.6933 17.3325 28.3769 17.3334 28V21.3333H14.6667V28C14.6667 28.3777 14.5387 28.6946 14.2827 28.9506C14.0267 29.2066 13.7103 29.3342 13.3334 29.3333C12.9556 29.3333 12.6387 29.2053 12.3827 28.9493C12.1267 28.6933 11.9992 28.3769 12 28ZM16 7.99996C15.2667 7.99996 14.6387 7.73863 14.116 7.21596C13.5934 6.6933 13.3325 6.06574 13.3334 5.3333C13.3334 4.59996 13.5947 3.97196 14.1174 3.4493C14.64 2.92663 15.2676 2.66574 16 2.66663C16.7334 2.66663 17.3614 2.92796 17.884 3.45063C18.4067 3.9733 18.6676 4.60085 18.6667 5.3333C18.6667 6.06663 18.4054 6.69463 17.8827 7.2173C17.36 7.73996 16.7325 8.00085 16 7.99996Z" fill="currentColor"/>
</svg>
