<svg width="194" height="199" viewBox="0 0 194 199" fill="none" xmlns="http://www.w3.org/2000/svg">
<path d="M125.019 5.64716L112.477 24.4635C111.704 25.6257 110.655 26.5784 109.425 27.2366C108.194 27.8949 106.819 28.2381 105.424 28.2358H88.883C86.6371 28.2381 84.4838 29.1312 82.8957 30.7193C81.3076 32.3074 80.4145 34.4607 80.4122 36.7066V53.648C80.4137 55.1453 81.0092 56.5808 82.0679 57.6395C83.1266 58.6983 84.5621 59.2937 86.0594 59.2952V79.0603C86.0609 80.5575 86.6563 81.993 87.7151 83.0518C88.7738 84.1105 90.2093 84.7059 91.7066 84.7074H103.001C104.498 84.7059 105.934 84.1105 106.992 83.0518C108.051 81.993 108.647 80.5575 108.648 79.0603V45.1773H103.001V79.0603H91.7066V53.648H86.0594V36.7066C86.0594 35.9577 86.3569 35.2395 86.8864 34.71C87.4159 34.1805 88.1341 33.883 88.883 33.883H105.429C107.754 33.8857 110.043 33.3129 112.093 32.2157C114.142 31.1185 115.888 29.531 117.175 27.5949L129.718 8.77851L125.019 5.64716Z" fill="url(#paint0_linear_178_765)"/>
<path d="M86.0594 14.1179C86.0594 11.8841 86.7218 9.70046 87.9629 7.84312C89.2039 5.98577 90.9679 4.53815 93.0316 3.68331C95.0954 2.82847 97.3663 2.60481 99.5572 3.0406C101.748 3.47639 103.761 4.55207 105.34 6.13161C106.92 7.71115 107.995 9.72361 108.431 11.9145C108.867 14.1054 108.643 16.3763 107.788 18.4401C106.934 20.5038 105.486 22.2678 103.629 23.5088C101.771 24.7498 99.5876 25.4122 97.3538 25.4122C94.3593 25.4092 91.4882 24.2183 89.3708 22.1009C87.2533 19.9835 86.0624 17.1124 86.0594 14.1179ZM91.7066 14.1179C91.7066 15.2348 92.0378 16.3266 92.6583 17.2553C93.2788 18.184 94.1608 18.9078 95.1927 19.3352C96.2246 19.7626 97.36 19.8745 98.4555 19.6566C99.5509 19.4387 100.557 18.9008 101.347 18.1111C102.137 17.3213 102.675 16.3151 102.892 15.2196C103.11 14.1242 102.998 12.9887 102.571 11.9568C102.144 10.9249 101.42 10.043 100.491 9.42246C99.5625 8.80195 98.4707 8.47075 97.3538 8.47075C95.8565 8.47224 94.421 9.06769 93.3623 10.1264C92.3036 11.1851 91.7081 12.6206 91.7066 14.1179Z" fill="url(#paint1_linear_178_765)"/>
<path d="M3.072 155V121.4H8.592V150.104H23.04V155H3.072ZM31.5795 121.496C32.1555 122.072 32.4915 122.84 32.4915 123.704C32.4915 124.616 32.1555 125.384 31.5795 125.96C30.9555 126.536 30.1875 126.824 29.3235 126.824C28.4115 126.824 27.6435 126.536 27.0675 125.96C26.4435 125.384 26.1555 124.616 26.1555 123.704C26.1555 122.84 26.4435 122.072 27.0675 121.496C27.6435 120.92 28.4115 120.584 29.3235 120.584C30.1875 120.584 30.9555 120.92 31.5795 121.496ZM26.7315 130.424H31.9155V155H26.7315V130.424ZM38.5811 130.424V127.976C38.5811 125.816 39.1091 124.184 40.2611 123.08C41.3651 121.976 43.0931 121.4 45.4451 121.4H50.4371V125.96H46.1651C45.3011 125.96 44.7251 126.152 44.3411 126.536C43.9571 126.92 43.8131 127.544 43.8131 128.36V130.424H50.3891V134.984H43.8131V155H38.5811V134.984H34.3091V130.424H38.5811ZM52.9815 123.56H58.1655V130.424H64.1175V134.984H58.1655V147.8C58.1655 148.76 58.3575 149.48 58.7415 149.864C59.1255 150.248 59.7495 150.44 60.7095 150.44H64.6455V155H59.6535C57.3015 155 55.6215 154.472 54.5655 153.368C53.5095 152.312 52.9815 150.632 52.9815 148.328V123.56ZM72.1699 144.056C72.3139 146.072 73.1299 147.656 74.5699 148.856C76.0099 150.056 77.9299 150.632 80.2819 150.632C82.2979 150.632 83.9779 150.2 85.2259 149.336C86.4739 148.472 87.1459 147.224 87.1459 145.64C87.1459 144.536 86.7619 143.672 86.0899 143C85.4179 142.328 84.4579 141.848 83.3059 141.464C82.1059 141.128 80.4259 140.744 78.3139 140.36C76.1059 139.976 74.2339 139.496 72.6979 138.872C71.1619 138.248 69.8659 137.288 68.9059 135.992C67.9459 134.744 67.4659 133.064 67.4659 130.952C67.4659 129.032 67.9459 127.352 68.9539 125.816C69.9619 124.328 71.3539 123.176 73.1779 122.312C75.0019 121.496 77.0659 121.064 79.4179 121.064C81.8179 121.064 83.9299 121.544 85.8499 122.408C87.7219 123.32 89.2099 124.568 90.3139 126.104C91.3699 127.688 91.9939 129.464 92.0899 131.48H86.6659C86.4739 129.752 85.7059 128.36 84.4099 127.304C83.0659 126.248 81.4339 125.72 79.4179 125.72C77.4499 125.72 75.8659 126.152 74.7139 127.016C73.5619 127.88 72.9859 129.032 72.9859 130.568C72.9859 131.672 73.3219 132.536 73.9939 133.16C74.6659 133.832 75.6259 134.312 76.7779 134.6C77.9299 134.936 79.5619 135.272 81.7219 135.656C83.8819 136.04 85.7539 136.568 87.3379 137.192C88.8739 137.864 90.1699 138.776 91.1779 140.024C92.1379 141.272 92.6659 142.952 92.6659 144.968C92.6659 146.984 92.1379 148.76 91.0819 150.296C90.0259 151.88 88.5379 153.128 86.6659 153.992C84.7459 154.856 82.6339 155.288 80.2339 155.288C77.5459 155.288 75.2419 154.808 73.2259 153.848C71.2099 152.888 69.6259 151.592 68.4739 149.864C67.3219 148.136 66.7459 146.168 66.7459 143.96L72.1699 144.056ZM117.061 132.824C118.885 134.648 119.845 137.528 119.845 141.464V155H114.661V141.752C114.661 139.448 114.133 137.672 113.125 136.424C112.117 135.224 110.677 134.6 108.757 134.6C106.693 134.6 105.061 135.32 103.909 136.76C102.757 138.2 102.181 140.12 102.181 142.568V155H96.9971V121.4H102.181V133.976C104.005 131.432 106.597 130.136 109.909 130.136C112.837 130.136 115.237 131.048 117.061 132.824ZM148.08 150.488V155H145.344C143.712 155 142.56 154.664 141.888 153.992C141.168 153.32 140.832 152.36 140.832 151.064C138.96 153.896 136.272 155.288 132.72 155.288C129.936 155.288 127.728 154.664 126.096 153.368C124.416 152.12 123.6 150.344 123.6 148.088C123.6 145.592 124.464 143.624 126.288 142.28C128.064 140.936 130.656 140.216 134.112 140.216H140.304V138.728C140.304 137.384 139.824 136.28 138.864 135.512C137.904 134.744 136.56 134.312 134.88 134.312C133.344 134.312 132.096 134.648 131.136 135.32C130.176 135.992 129.6 136.856 129.408 137.912H124.32C124.56 135.464 125.664 133.544 127.584 132.2C129.504 130.856 132 130.136 135.12 130.136C138.384 130.136 140.928 130.904 142.752 132.44C144.528 133.976 145.44 136.184 145.44 139.064V148.76C145.44 149.912 145.968 150.488 147.072 150.488H148.08ZM140.304 144.056H133.872C132.24 144.056 131.04 144.392 130.176 145.016C129.312 145.64 128.88 146.552 128.88 147.752C128.88 148.808 129.264 149.672 130.08 150.296C130.896 150.968 132 151.256 133.44 151.256C135.552 151.256 137.232 150.68 138.432 149.528C139.632 148.376 140.256 146.84 140.304 144.92V144.056ZM164.487 130.424V135.272H162.183C160.023 135.272 158.487 135.992 157.527 137.384C156.567 138.776 156.087 140.552 156.087 142.664V155H150.903V130.424H155.511L156.087 134.12C156.759 132.968 157.671 132.104 158.823 131.432C159.927 130.76 161.415 130.424 163.335 130.424H164.487ZM167.183 136.136C168.191 134.216 169.583 132.776 171.407 131.72C173.231 130.664 175.295 130.136 177.647 130.136C179.999 130.136 182.063 130.616 183.887 131.576C185.711 132.536 187.103 133.928 188.159 135.656C189.215 137.432 189.743 139.496 189.791 141.848C189.791 142.52 189.743 143.144 189.647 143.816H171.118V144.104C171.215 146.264 171.887 147.944 173.135 149.192C174.335 150.44 175.967 151.064 177.983 151.064C179.567 151.064 180.911 150.728 182.015 149.96C183.071 149.192 183.791 148.136 184.175 146.744H189.359C188.879 149.24 187.679 151.304 185.711 152.888C183.743 154.52 181.295 155.288 178.367 155.288C175.775 155.288 173.567 154.808 171.647 153.752C169.727 152.696 168.287 151.256 167.23 149.336C166.175 147.464 165.695 145.256 165.695 142.76C165.695 140.264 166.175 138.056 167.183 136.136ZM184.511 140.024C184.271 138.248 183.551 136.856 182.351 135.848C181.151 134.84 179.663 134.312 177.839 134.312C176.111 134.312 174.671 134.84 173.423 135.896C172.175 136.952 171.503 138.296 171.311 140.024H184.511Z" fill="white"/>
<defs>
<linearGradient id="paint0_linear_178_765" x1="80" y1="45" x2="130" y2="45" gradientUnits="userSpaceOnUse">
<stop stop-color="#00E6FF"/>
<stop offset="1" stop-color="#1201FF"/>
</linearGradient>
<linearGradient id="paint1_linear_178_765" x1="85.9415" y1="14" x2="130" y2="14" gradientUnits="userSpaceOnUse">
<stop stop-color="#00E6FF"/>
<stop offset="1" stop-color="#1201FF"/>
</linearGradient>
</defs>
</svg>
