<svg width="91" height="91" viewBox="0 0 91 91" fill="none" xmlns="http://www.w3.org/2000/svg">
<path d="M70.0192 5.64716L57.4768 24.4635C56.7039 25.6257 55.6553 26.5784 54.4245 27.2366C53.1938 27.8949 51.8192 28.2381 50.4235 28.2358H33.883C31.6371 28.2381 29.4838 29.1312 27.8957 30.7193C26.3076 32.3074 25.4145 34.4607 25.4122 36.7066V53.648C25.4137 55.1453 26.0092 56.5808 27.0679 57.6395C28.1266 58.6983 29.5621 59.2937 31.0594 59.2952V79.0603C31.0609 80.5575 31.6563 81.993 32.7151 83.0518C33.7738 84.1105 35.2093 84.7059 36.7066 84.7074H48.0009C49.4981 84.7059 50.9337 84.1105 51.9924 83.0518C53.0511 81.993 53.6466 80.5575 53.648 79.0603V45.1773H48.0009V79.0603H36.7066V53.648H31.0594V36.7066C31.0594 35.9577 31.3569 35.2395 31.8864 34.71C32.4159 34.1805 33.1341 33.883 33.883 33.883H50.4292C52.7539 33.8857 55.0432 33.3129 57.0928 32.2157C59.1423 31.1185 60.8884 29.531 62.1753 27.5949L74.7176 8.77851L70.0192 5.64716Z" fill="url(#paint0_linear_178_766)"/>
<path d="M31.0594 14.1179C31.0594 11.8841 31.7218 9.70046 32.9629 7.84312C34.2039 5.98577 35.9679 4.53815 38.0316 3.68331C40.0954 2.82847 42.3663 2.60481 44.5572 3.0406C46.7481 3.47639 48.7605 4.55207 50.3401 6.13161C51.9196 7.71115 52.9953 9.72361 53.4311 11.9145C53.8669 14.1054 53.6432 16.3763 52.7884 18.4401C51.9335 20.5038 50.4859 22.2678 48.6286 23.5088C46.7712 24.7498 44.5876 25.4122 42.3538 25.4122C39.3593 25.4092 36.4882 24.2183 34.3708 22.1009C32.2533 19.9835 31.0624 17.1124 31.0594 14.1179ZM36.7066 14.1179C36.7066 15.2348 37.0378 16.3266 37.6583 17.2553C38.2788 18.184 39.1608 18.9078 40.1927 19.3352C41.2246 19.7626 42.36 19.8745 43.4555 19.6566C44.5509 19.4387 45.5571 18.9008 46.3469 18.1111C47.1367 17.3213 47.6745 16.3151 47.8924 15.2196C48.1103 14.1242 47.9985 12.9887 47.5711 11.9568C47.1437 10.9249 46.4198 10.043 45.4912 9.42246C44.5625 8.80195 43.4707 8.47075 42.3538 8.47075C40.8565 8.47224 39.421 9.06769 38.3623 10.1264C37.3036 11.1851 36.7081 12.6206 36.7066 14.1179Z" fill="url(#paint1_linear_178_766)"/>
<defs>
<linearGradient id="paint0_linear_178_766" x1="25" y1="45" x2="75" y2="45" gradientUnits="userSpaceOnUse">
<stop stop-color="#00E6FF"/>
<stop offset="1" stop-color="#1201FF"/>
</linearGradient>
<linearGradient id="paint1_linear_178_766" x1="30.9415" y1="14" x2="75" y2="14" gradientUnits="userSpaceOnUse">
<stop stop-color="#00E6FF"/>
<stop offset="1" stop-color="#1201FF"/>
</linearGradient>
</defs>
</svg>
