<svg width="24" height="24" viewBox="0 0 24 24" fill="none" xmlns="http://www.w3.org/2000/svg">
<path d="M12.0031 11.73C12.4484 11.73 12.8284 11.5717 13.1431 11.255C13.4577 10.9383 13.6151 10.5573 13.6151 10.112C13.6151 9.66667 13.4567 9.28667 13.1401 8.972C12.8227 8.65733 12.4417 8.5 11.9971 8.5C11.5524 8.5 11.1724 8.65867 10.8571 8.976C10.5424 9.29267 10.3851 9.67367 10.3851 10.119C10.3851 10.5643 10.5434 10.9443 10.8601 11.259C11.1774 11.5737 11.5584 11.731 12.0031 11.731V11.73ZM12.0001 21.02C9.65005 18.9413 7.88005 17.003 6.69005 15.205C5.49939 13.407 4.90405 11.7707 4.90405 10.296C4.90405 8.18067 5.59272 6.436 6.97005 5.062C8.34805 3.68733 10.0247 3 12.0001 3C13.9754 3 15.6521 3.68733 17.0301 5.062C18.4074 6.436 19.0961 8.18067 19.0961 10.296C19.0961 11.7707 18.5011 13.407 17.3111 15.205C16.1204 17.003 14.3501 18.941 12.0001 21.019V21.02Z" fill="white"/>
</svg>
