<svg width="20" height="20" viewBox="0 0 20 20" fill="none" xmlns="http://www.w3.org/2000/svg">
<path d="M16.6667 10.0002H8.75004M15 12.5002L17.5 10.0002L15 7.50016M10.8334 5.8335V5.00016C10.8334 4.55814 10.6578 4.13421 10.3452 3.82165C10.0327 3.50909 9.60874 3.3335 9.16671 3.3335H5.00004C4.55801 3.3335 4.13409 3.50909 3.82153 3.82165C3.50897 4.13421 3.33337 4.55814 3.33337 5.00016V15.0002C3.33337 15.4422 3.50897 15.8661 3.82153 16.1787C4.13409 16.4912 4.55801 16.6668 5.00004 16.6668H9.16671C9.60874 16.6668 10.0327 16.4912 10.3452 16.1787C10.6578 15.8661 10.8334 15.4422 10.8334 15.0002V14.1668" stroke="white" stroke-width="2" stroke-linecap="round" stroke-linejoin="round"/>
</svg>
