<svg width="28" height="28" viewBox="0 0 28 28" fill="none" xmlns="http://www.w3.org/2000/svg">
<path d="M23.1875 4.375H4.8125C4.00054 4.37587 3.22209 4.6988 2.64794 5.27294C2.0738 5.84709 1.75087 6.62554 1.75 7.4375V20.5625C1.75087 21.3745 2.0738 22.1529 2.64794 22.7271C3.22209 23.3012 4.00054 23.6241 4.8125 23.625H23.1875C23.9995 23.6241 24.7779 23.3012 25.3521 22.7271C25.9262 22.1529 26.2491 21.3745 26.25 20.5625V7.4375C26.2491 6.62554 25.9262 5.84709 25.3521 5.27294C24.7779 4.6988 23.9995 4.37587 23.1875 4.375ZM22.412 9.4407L14.537 15.5657C14.3835 15.6851 14.1945 15.7499 14 15.7499C13.8055 15.7499 13.6165 15.6851 13.463 15.5657L5.58797 9.4407C5.49544 9.37083 5.41773 9.28327 5.35934 9.1831C5.30095 9.08293 5.26305 8.97216 5.24784 8.85722C5.23263 8.74228 5.24042 8.62546 5.27075 8.51356C5.30107 8.40165 5.35334 8.29689 5.42451 8.20536C5.49567 8.11383 5.58432 8.03735 5.6853 7.98038C5.78628 7.9234 5.89757 7.88706 6.01272 7.87347C6.12786 7.85988 6.24456 7.86931 6.35603 7.90121C6.46749 7.93311 6.57151 7.98685 6.66203 8.0593L14 13.7665L21.338 8.0593C21.5215 7.92073 21.7521 7.85996 21.9801 7.89012C22.208 7.92028 22.4149 8.03895 22.556 8.22047C22.6972 8.40199 22.7612 8.63177 22.7342 8.86012C22.7073 9.08847 22.5915 9.29703 22.412 9.4407Z" fill="white"/>
</svg>
