<svg width="28" height="28" viewBox="0 0 28 28" fill="none" xmlns="http://www.w3.org/2000/svg">
<path d="M27.0495 13.6456C27.0112 13.5592 26.0848 11.5041 24.0253 9.44453C21.2811 6.70031 17.815 5.25 14 5.25C10.185 5.25 6.7189 6.70031 3.97468 9.44453C1.91515 11.5041 0.984365 13.5625 0.950458 13.6456C0.900707 13.7575 0.875 13.8786 0.875 14.0011C0.875 14.1236 0.900707 14.2447 0.950458 14.3566C0.98874 14.443 1.91515 16.497 3.97468 18.5566C6.7189 21.2997 10.185 22.75 14 22.75C17.815 22.75 21.2811 21.2997 24.0253 18.5566C26.0848 16.497 27.0112 14.443 27.0495 14.3566C27.0993 14.2447 27.125 14.1236 27.125 14.0011C27.125 13.8786 27.0993 13.7575 27.0495 13.6456ZM14 21C10.6334 21 7.69233 19.7761 5.25765 17.3633C4.25866 16.3698 3.40876 15.237 2.73436 14C3.40858 12.7629 4.2585 11.63 5.25765 10.6367C7.69233 8.22391 10.6334 7 14 7C17.3666 7 20.3076 8.22391 22.7423 10.6367C23.7433 11.6298 24.595 12.7627 25.2711 14C24.4825 15.4722 21.047 21 14 21ZM14 8.75C12.9616 8.75 11.9466 9.05791 11.0832 9.63478C10.2199 10.2117 9.54698 11.0316 9.14962 11.9909C8.75226 12.9502 8.64829 14.0058 8.85087 15.0242C9.05344 16.0426 9.55345 16.9781 10.2877 17.7123C11.0219 18.4465 11.9574 18.9466 12.9758 19.1491C13.9942 19.3517 15.0498 19.2477 16.0091 18.8504C16.9684 18.453 17.7883 17.7801 18.3652 16.9167C18.9421 16.0534 19.25 15.0384 19.25 14C19.2485 12.6081 18.695 11.2735 17.7107 10.2893C16.7265 9.30504 15.3919 8.75145 14 8.75ZM14 17.5C13.3078 17.5 12.6311 17.2947 12.0555 16.9101C11.4799 16.5256 11.0313 15.9789 10.7664 15.3394C10.5015 14.6999 10.4322 13.9961 10.5672 13.3172C10.7023 12.6383 11.0356 12.0146 11.5251 11.5251C12.0146 11.0356 12.6382 10.7023 13.3172 10.5673C13.9961 10.4322 14.6998 10.5015 15.3394 10.7664C15.9789 11.0313 16.5255 11.4799 16.9101 12.0555C17.2947 12.6311 17.5 13.3078 17.5 14C17.5 14.9283 17.1312 15.8185 16.4749 16.4749C15.8185 17.1313 14.9282 17.5 14 17.5Z" fill="white"/>
</svg>
