<svg width="34" height="34" viewBox="0 0 34 34" fill="none" xmlns="http://www.w3.org/2000/svg">
<path d="M25.5 11.3333H24.0833V8.5C24.0833 4.59 20.91 1.41667 17 1.41667C13.09 1.41667 9.91666 4.59 9.91666 8.5V11.3333H8.49999C6.94166 11.3333 5.66666 12.6083 5.66666 14.1667V28.3333C5.66666 29.8917 6.94166 31.1667 8.49999 31.1667H25.5C27.0583 31.1667 28.3333 29.8917 28.3333 28.3333V14.1667C28.3333 12.6083 27.0583 11.3333 25.5 11.3333ZM17 24.0833C15.4417 24.0833 14.1667 22.8083 14.1667 21.25C14.1667 19.6917 15.4417 18.4167 17 18.4167C18.5583 18.4167 19.8333 19.6917 19.8333 21.25C19.8333 22.8083 18.5583 24.0833 17 24.0833ZM12.75 11.3333V8.5C12.75 6.14834 14.6483 4.25001 17 4.25001C19.3517 4.25001 21.25 6.14834 21.25 8.5V11.3333H12.75Z" fill="white"/>
</svg>
