<svg width="24" height="24" viewBox="0 0 24 24" fill="none" xmlns="http://www.w3.org/2000/svg">
<path fill-rule="evenodd" clip-rule="evenodd" d="M3 5C3 4.20435 3.31607 3.44129 3.87868 2.87868C4.44129 2.31607 5.20435 2 6 2H18C18.7956 2 19.5587 2.31607 20.1213 2.87868C20.6839 3.44129 21 4.20435 21 5V21C20.9999 21.1883 20.9466 21.3728 20.8462 21.5322C20.7459 21.6916 20.6025 21.8194 20.4327 21.9009C20.2629 21.9824 20.0736 22.0143 19.8864 21.9929C19.6993 21.9715 19.522 21.8977 19.375 21.78L17.446 20.238L15.055 21.832C14.8784 21.9499 14.6688 22.0085 14.4567 21.9993C14.2445 21.9902 14.0408 21.9137 13.875 21.781L12 20.28L10.125 21.78C9.95921 21.9127 9.75549 21.9892 9.54333 21.9983C9.33118 22.0075 9.12162 21.9489 8.945 21.831L6.554 20.237L4.624 21.78C4.47696 21.8974 4.29977 21.971 4.1128 21.9922C3.92584 22.0134 3.73667 21.9815 3.56705 21.9C3.39743 21.8185 3.25424 21.6909 3.15393 21.5317C3.05362 21.3724 3.00027 21.1882 3 21V5ZM8 6C7.73478 6 7.48043 6.10536 7.29289 6.29289C7.10536 6.48043 7 6.73478 7 7C7 7.26522 7.10536 7.51957 7.29289 7.70711C7.48043 7.89464 7.73478 8 8 8H16C16.2652 8 16.5196 7.89464 16.7071 7.70711C16.8946 7.51957 17 7.26522 17 7C17 6.73478 16.8946 6.48043 16.7071 6.29289C16.5196 6.10536 16.2652 6 16 6H8ZM8 10C7.73478 10 7.48043 10.1054 7.29289 10.2929C7.10536 10.4804 7 10.7348 7 11C7 11.2652 7.10536 11.5196 7.29289 11.7071C7.48043 11.8946 7.73478 12 8 12H16C16.2652 12 16.5196 11.8946 16.7071 11.7071C16.8946 11.5196 17 11.2652 17 11C17 10.7348 16.8946 10.4804 16.7071 10.2929C16.5196 10.1054 16.2652 10 16 10H8ZM8 14C7.73478 14 7.48043 14.1054 7.29289 14.2929C7.10536 14.4804 7 14.7348 7 15C7 15.2652 7.10536 15.5196 7.29289 15.7071C7.48043 15.8946 7.73478 16 8 16H12C12.2652 16 12.5196 15.8946 12.7071 15.7071C12.8946 15.5196 13 15.2652 13 15C13 14.7348 12.8946 14.4804 12.7071 14.2929C12.5196 14.1054 12.2652 14 12 14H8Z" fill="currentColor"/>
</svg>
