<svg width="24" height="24" viewBox="0 0 24 24" fill="none" xmlns="http://www.w3.org/2000/svg">
<path d="M13 21C11.95 21 10.9583 20.8333 10.025 20.5C9.09168 20.1667 8.24168 19.7 7.47502 19.1C7.25835 18.9167 7.14168 18.6873 7.12502 18.412C7.10835 18.1367 7.20002 17.8993 7.40002 17.7C7.60002 17.5 7.83768 17.4 8.11302 17.4C8.38835 17.4 8.64235 17.4833 8.87502 17.65C9.45835 18.0833 10.096 18.4167 10.788 18.65C11.48 18.8833 12.2173 19 13 19C14.9333 19 16.5833 18.3167 17.95 16.95C19.3167 15.5833 20 13.9333 20 12C20 10.0667 19.3167 8.41667 17.95 7.05C16.5833 5.68333 14.9333 5 13 5C11.0667 5 9.41668 5.68333 8.05002 7.05C6.68335 8.41667 6.00002 10.0667 6.00002 12V12.175L7.12502 11.05C7.30835 10.8667 7.53768 10.775 7.81302 10.775C8.08835 10.775 8.32568 10.8667 8.52502 11.05C8.72502 11.25 8.82502 11.4877 8.82502 11.763C8.82502 12.0383 8.72502 12.2757 8.52502 12.475L5.70002 15.3C5.50002 15.5 5.26668 15.6 5.00002 15.6C4.73335 15.6 4.50002 15.5 4.30002 15.3L1.45002 12.45C1.25002 12.25 1.15435 12.0127 1.16302 11.738C1.17168 11.4633 1.27568 11.234 1.47502 11.05C1.67502 10.8667 1.91268 10.7707 2.18802 10.762C2.46335 10.7533 2.69235 10.8493 2.87502 11.05L4.00002 12.2V12C4.00002 10.75 4.23768 9.57933 4.71302 8.488C5.18835 7.39667 5.83002 6.44667 6.63802 5.638C7.44602 4.82933 8.39602 4.18767 9.48802 3.713C10.58 3.23833 11.7507 3.00067 13 3C14.25 3 15.421 3.23767 16.513 3.713C17.605 4.18833 18.555 4.82967 19.363 5.637C20.171 6.44567 20.8127 7.39567 21.288 8.487C21.7633 9.57833 22.0007 10.7493 22 12C22 14.5 21.125 16.625 19.375 18.375C17.625 20.125 15.5 21 13 21ZM11 16C10.7167 16 10.479 15.904 10.287 15.712C10.095 15.52 9.99935 15.2827 10 15V12C10 11.7167 10.096 11.479 10.288 11.287C10.48 11.095 10.7173 10.9993 11 11V10C11 9.45 11.196 8.979 11.588 8.587C11.98 8.195 12.4507 7.99933 13 8C13.55 8 14.021 8.196 14.413 8.588C14.805 8.98 15.0007 9.45067 15 10V11C15.2833 11 15.521 11.096 15.713 11.288C15.905 11.48 16.0007 11.7173 16 12V15C16 15.2833 15.904 15.521 15.712 15.713C15.52 15.905 15.2827 16.0007 15 16H11ZM12 11H14V10C14 9.71667 13.904 9.479 13.712 9.287C13.52 9.095 13.2827 8.99933 13 9C12.7167 9 12.479 9.096 12.287 9.288C12.095 9.48 11.9993 9.71733 12 10V11Z" fill="white"/>
</svg>
